<svg width="1194" height="40" viewBox="0 0 1194 40" fill="none" xmlns="http://www.w3.org/2000/svg">
<g opacity="0.3">
<path d="M37.5616 19.9998C37.5616 25.0216 35.5829 29.8378 32.0608 33.3887C28.5387 36.9397 23.7618 38.9346 18.7808 38.9346C13.7998 38.9346 9.02284 36.9397 5.50076 33.3887C1.97868 29.8378 0 25.0216 0 19.9998C0 14.978 1.97868 10.1618 5.50076 6.61083C9.02284 3.05986 13.7998 1.06494 18.7808 1.06494C23.7618 1.06494 28.5387 3.05986 32.0608 6.61083C35.5829 10.1618 37.5616 14.978 37.5616 19.9998Z" fill="#202430"/>
<path d="M18.9353 30.5529C13.7744 30.5713 8.4046 26.1376 8.37734 19.0015C8.36826 14.2838 10.8942 9.74935 14.1106 7.05615C17.2635 4.42708 21.5702 2.7507 25.4772 2.73237C25.9331 2.71507 26.3891 2.76444 26.831 2.87894C25.1157 3.26011 23.578 4.21351 22.4667 5.58496C21.3554 6.9564 20.7354 8.66569 20.7071 10.4364C20.7071 10.5646 20.7071 10.6929 20.7252 10.7479C26.4494 12.1494 29.0389 15.6304 29.0571 20.4489C29.0535 21.7832 28.7886 23.1038 28.2774 24.3346C27.7663 25.5654 27.019 26.6823 26.0785 27.6212C25.138 28.5601 24.0228 29.3023 22.7969 29.8055C21.5711 30.3086 20.2588 30.5626 18.9353 30.5529Z" fill="white"/>
<path d="M49.6914 27.8416L43.9581 14.0183H47.7107L51.2996 23.1972L54.7705 14.0183H58.3504L52.7716 27.8416H49.6914ZM68.3359 20.8612C68.34 20.3052 68.2728 19.751 68.136 19.2123C68.0203 18.7356 67.8169 18.2851 67.5363 17.8841C67.2835 17.5205 66.9547 17.2172 66.5732 16.9955C66.1662 16.7639 65.7048 16.6468 65.2376 16.6565C64.7702 16.6463 64.3088 16.7634 63.9019 16.9955C63.5164 17.2152 63.1843 17.5187 62.9297 17.8841C62.6513 18.2885 62.4509 18.7423 62.3391 19.2215C62.203 19.7572 62.1359 20.3083 62.1392 20.8612C62.1347 21.4173 62.2019 21.9716 62.3391 22.5101C62.4535 22.9854 62.6471 23.4376 62.9115 23.8476C63.1629 24.234 63.5071 24.5501 63.9123 24.7663C64.3174 24.9825 64.7702 25.0919 65.2285 25.0842C65.6866 25.0983 66.1405 24.9916 66.5452 24.7747C66.9499 24.5578 67.2915 24.2383 67.5363 23.8476C67.813 23.4443 68.016 22.9945 68.136 22.5193C68.274 21.9778 68.3412 21.4203 68.3359 20.8612ZM71.7977 20.8704C71.7978 21.7719 71.6599 22.6679 71.3888 23.527C71.1245 24.3744 70.7088 25.1661 70.1622 25.8629C69.576 26.6062 68.8252 27.2006 67.9699 27.5983C67.1147 27.996 66.1788 28.186 65.2376 28.153C64.2953 28.1838 63.3588 27.9929 62.5024 27.5954C61.6461 27.1979 60.8933 26.6047 60.3039 25.8629C59.7584 25.1653 59.3429 24.3739 59.0772 23.527C58.5373 21.8071 58.5373 19.9611 59.0772 18.2413C59.3431 17.4029 59.7588 16.6205 60.3039 15.9329C60.8585 15.2448 61.5564 14.6881 62.3482 14.3023C63.2502 13.8711 64.2395 13.6578 65.2376 13.6794C66.1729 13.6533 67.1019 13.8427 67.9537 14.2332C68.8055 14.6237 69.5577 15.205 70.1531 15.9329C70.6982 16.6107 71.1162 17.3802 71.3888 18.2413C71.6614 19.1024 71.7977 19.9818 71.7977 20.8704ZM82.3919 17.0688C81.79 16.8131 81.1459 16.6733 80.493 16.6565C79.9825 16.6316 79.474 16.7359 79.0137 16.9599C78.5535 17.1839 78.1562 17.5205 77.858 17.939C77.571 18.3411 77.3558 18.7906 77.222 19.2673C77.081 19.7585 77.0107 20.2675 77.013 20.7788C77.0099 21.3337 77.0709 21.887 77.1947 22.4277C77.304 22.9161 77.4977 23.3812 77.7672 23.8018C78.0125 24.1888 78.3418 24.5145 78.7303 24.7545C79.1119 24.9926 79.5753 25.1209 80.0932 25.1209C80.5614 25.1104 81.0199 24.9846 81.4288 24.7545C81.8207 24.5683 82.1539 24.2766 82.3919 23.9117V17.0688ZM82.6736 27.8416L82.5373 26.7789C82.1753 27.1754 81.7442 27.5015 81.2653 27.7408C80.5708 28.0403 79.8187 28.1793 79.064 28.1476C78.3094 28.1159 77.5713 27.9143 76.904 27.5576C76.1885 27.1607 75.5682 26.6104 75.0868 25.9453C74.5784 25.246 74.1969 24.4613 73.9601 23.6277C73.7049 22.7344 73.5764 21.8092 73.5785 20.8796C73.5785 19.9727 73.7057 19.0932 73.9692 18.2322C74.2255 17.3961 74.6354 16.6162 75.1776 15.9329C75.7633 15.2008 76.5098 14.6161 77.3582 14.225C78.2066 13.8339 79.1336 13.6471 80.0659 13.6794C80.7928 13.6794 81.5651 13.8168 82.3919 14.0824V8.72352H85.9173V27.8416H82.6736ZM95.8392 21.3559C95.0619 21.4084 94.2883 21.5063 93.5223 21.649C92.7591 21.8048 92.2321 22.0613 91.9322 22.4368C91.6515 22.7799 91.4974 23.2105 91.4961 23.6552C91.4961 24.1132 91.6597 24.4797 91.9958 24.7545C92.4028 25.0549 92.9005 25.2038 93.4042 25.1759C93.8585 25.1759 94.3128 25.0842 94.7398 24.8919C95.1437 24.7141 95.5153 24.4695 95.8392 24.1682V21.3559ZM96.1209 27.8232L95.9846 26.7973C95.5816 27.2372 95.0844 27.5787 94.5308 27.7958C93.3666 28.2603 92.074 28.2799 90.8964 27.8507C90.0509 27.5665 89.3183 27.0162 88.8063 26.2807C88.2943 25.5452 88.0301 24.6634 88.0525 23.7651C88.0408 23.1602 88.1685 22.5607 88.4254 22.0139C88.6824 21.4671 89.0617 20.9879 89.5335 20.6139C90.0103 20.2399 90.5402 19.9404 91.1054 19.7253C92.1876 19.3384 93.3142 19.0921 94.4581 18.9925L95.821 18.8642V18.6627C95.821 17.9024 95.6212 17.3619 95.2305 17.0321C94.7649 16.6833 94.1921 16.5113 93.6131 16.5466C92.5834 16.5518 91.5804 16.8782 90.742 17.481C90.5587 17.5983 90.3827 17.7268 90.215 17.8657L89.0429 15.3741C89.6051 14.944 90.2225 14.5927 90.8783 14.3298C92.5862 13.614 94.4817 13.4915 96.2663 13.9817C96.8798 14.175 97.4413 14.5076 97.9075 14.9538C98.3737 15.4 98.7323 15.9481 98.9557 16.5558C99.2288 17.322 99.3582 18.1328 99.3373 18.9467V27.8324L96.1209 27.8232ZM110.231 11.8747C109.603 11.5913 108.92 11.4535 108.233 11.4717C107.751 11.4717 107.333 11.6182 107.006 11.9205C106.67 12.2137 106.506 12.6992 106.506 13.3679V14.0183H109.468V16.8856H106.533V27.8416H103.008V16.8856H101.191V14.0183H103.008V13.2855C103.008 12.3786 103.126 11.6182 103.353 10.9953C103.539 10.4373 103.852 9.9311 104.267 9.51739C104.682 9.10368 105.187 8.7941 105.743 8.61359C107.362 8.17769 109.077 8.28378 110.631 8.91589L110.231 11.8747ZM119.844 20.8612C119.847 20.3053 119.78 19.7513 119.645 19.2123C119.529 18.7356 119.325 18.2851 119.045 17.8841C118.792 17.5205 118.463 17.2172 118.082 16.9955C117.675 16.7639 117.213 16.6468 116.746 16.6565C116.279 16.6463 115.817 16.7634 115.41 16.9955C115.026 17.2166 114.694 17.5199 114.438 17.8841C114.159 18.2894 113.956 18.7426 113.839 19.2215C113.562 20.3031 113.562 21.4377 113.839 22.5193C113.958 22.9914 114.155 23.4402 114.42 23.8476C114.669 24.2255 115.002 24.5392 115.392 24.7636C115.808 24.9895 116.274 25.1031 116.746 25.0934C117.204 25.1049 117.656 24.996 118.059 24.7776C118.462 24.5591 118.802 24.2386 119.045 23.8476C119.322 23.4443 119.525 22.9945 119.645 22.5193C119.781 21.9774 119.848 21.4202 119.844 20.8612ZM123.306 20.8704C123.308 21.772 123.17 22.6683 122.897 23.527C122.635 24.3751 122.219 25.167 121.671 25.8629C121.085 26.6062 120.334 27.2006 119.478 27.5983C118.623 27.996 117.687 28.186 116.746 28.153C115.804 28.1838 114.867 27.9929 114.011 27.5954C113.155 27.1979 112.402 26.6047 111.812 25.8629C111.267 25.1653 110.851 24.3739 110.586 23.527C110.039 21.8083 110.039 19.96 110.586 18.2413C110.849 17.4035 111.261 16.6212 111.803 15.9329C112.361 15.2437 113.062 14.687 113.857 14.3023C114.759 13.8711 115.748 13.6578 116.746 13.6794C117.681 13.6533 118.61 13.8427 119.462 14.2332C120.314 14.6237 121.066 15.205 121.662 15.9329C122.207 16.6107 122.625 17.3802 122.897 18.2413C123.17 19.1024 123.306 19.9818 123.306 20.8704ZM134.255 27.8416V19.9635C134.309 19.0979 134.079 18.2383 133.601 17.5176C133.388 17.2378 133.112 17.0135 132.796 16.8637C132.48 16.7138 132.133 16.6428 131.783 16.6565C131.244 16.6503 130.715 16.7997 130.257 17.0871C129.818 17.3547 129.412 17.6746 129.049 18.0398V27.8416H125.523V14.0183H128.74L128.903 15.1176C130.012 14.1853 131.412 13.6762 132.856 13.6794C133.582 13.6794 134.246 13.7893 134.855 14.0091C135.449 14.2255 135.982 14.5839 136.408 15.0534C136.853 15.5298 137.19 16.1527 137.426 16.913C137.662 17.6825 137.78 18.5986 137.78 19.6612V27.8416H134.255ZM148.747 19.2673C148.721 18.8374 148.62 18.4156 148.447 18.0215C148.307 17.6968 148.103 17.4039 147.848 17.1604C147.407 16.7496 146.83 16.5207 146.23 16.5191C145.586 16.5308 144.967 16.7745 144.486 17.2062C144.196 17.4671 143.96 17.7838 143.793 18.1378C143.626 18.4917 143.531 18.8758 143.513 19.2673H148.747ZM143.432 21.8231C143.504 22.9865 143.868 23.8293 144.522 24.3422C145.242 24.8821 146.124 25.1569 147.021 25.1209C147.859 25.1199 148.691 24.9646 149.474 24.6629C149.761 24.548 150.041 24.4134 150.31 24.2598C150.493 24.1546 150.664 24.0286 150.819 23.8842L151.764 26.7789C151.229 27.1436 150.644 27.4275 150.028 27.6217C148.903 27.9695 147.734 28.1485 146.557 28.153C145.691 28.1561 144.831 28.0105 144.013 27.7225C143.219 27.443 142.496 26.9894 141.896 26.3942C141.261 25.7531 140.766 24.9856 140.442 24.1407C140.058 23.1173 139.873 22.0286 139.897 20.9345C139.897 19.762 140.07 18.736 140.397 17.8383C140.804 16.6075 141.59 15.5401 142.641 14.7919C143.692 14.0437 144.953 13.6539 146.239 13.6794C147.067 13.671 147.89 13.817 148.665 14.1099C149.401 14.3939 150.037 14.8428 150.573 15.4382C151.118 16.0428 151.546 16.8214 151.854 17.7833C152.172 18.736 152.327 19.8719 152.327 21.191V21.8231H143.432Z" fill="#202430"/>
</g>
<g opacity="0.3" clip-path="url(#clip0_0_1910)">
<path d="M291.304 0.446289H297.244V6.41618H291.304V0.446289Z" fill="#202430"/>
<path d="M297.096 31.5512V10.0297H291.452V31.5299H297.096L297.096 31.5512ZM334.471 31.7636V26.4948C333.647 26.4948 332.949 26.4523 332.442 26.3674C331.85 26.2824 331.406 26.0699 331.11 25.7725C330.814 25.4751 330.624 25.0501 330.518 24.4765C330.434 23.9453 330.391 23.2443 330.391 22.3945V14.8949H334.471V10.0297H330.391V1.65911H324.747V22.4583C324.747 24.2216 324.895 25.7087 325.191 26.8985C325.487 28.067 325.994 29.023 326.692 29.7453C327.389 30.4677 328.32 30.9775 329.44 31.2963C330.582 31.6149 332.019 31.7636 333.731 31.7636H334.471ZM366.773 31.5512V0.00195312H361.129V31.5512H366.773ZM319.314 12.1543C317.75 10.4546 315.551 9.60483 312.761 9.60483C311.408 9.60483 310.161 9.88103 309.061 10.4334C307.941 10.9858 307.011 11.7506 306.25 12.7278L305.954 13.1315V10.0297H300.394V31.5299H305.996V20.0787V20.4824C306.06 18.4641 306.546 16.9769 307.476 16.0209C308.47 15.0011 309.674 14.4913 311.049 14.4913C312.676 14.4913 313.924 15.0011 314.748 15.9784C315.551 16.9557 315.974 18.3366 315.974 20.1V31.5299H321.661V19.3351C321.682 16.2758 320.879 13.8539 319.314 12.1543ZM358.211 20.7585C358.211 19.2077 357.936 17.763 357.408 16.4033C356.858 15.0648 356.097 13.8751 355.146 12.8553C354.174 11.8356 353.011 11.0495 351.658 10.4759C350.305 9.90223 348.804 9.62603 347.176 9.62603C345.633 9.62603 344.174 9.92351 342.821 10.4971C341.469 11.092 340.285 11.8781 339.291 12.8766C338.298 13.8751 337.494 15.0649 336.924 16.4246C336.332 17.7843 336.057 19.2502 336.057 20.8011C336.057 22.352 336.332 23.8179 336.881 25.1776C337.431 26.5373 338.213 27.727 339.185 28.7256C340.158 29.7241 341.363 30.5314 342.758 31.105C344.153 31.6999 345.697 31.9974 347.345 31.9974C352.123 31.9974 355.083 29.8091 356.858 27.7695L352.799 24.6677C351.954 25.6875 349.925 27.0685 347.388 27.0685C345.802 27.0685 344.492 26.7072 343.498 25.9637C342.504 25.2413 341.828 24.2216 341.468 22.9681L341.405 22.7769H358.211V20.7585ZM341.447 18.7828C341.447 17.2106 343.244 14.47 347.113 14.4488C350.981 14.4488 352.799 17.1894 352.799 18.7615L341.447 18.7828ZM373.2 28.8318C373.094 28.5769 372.946 28.3644 372.756 28.1732C372.565 27.982 372.354 27.8333 372.1 27.727C371.847 27.6208 371.572 27.5571 371.297 27.5571C371.001 27.5571 370.747 27.6208 370.494 27.727C370.24 27.8333 370.029 27.982 369.838 28.1732C369.648 28.3644 369.5 28.5769 369.394 28.8318C369.289 29.0867 369.225 29.3629 369.225 29.6391C369.225 29.9365 369.289 30.1914 369.394 30.4465C369.5 30.7013 369.648 30.9138 369.838 31.105C370.029 31.2963 370.24 31.445 370.494 31.5512C370.747 31.6574 371.022 31.7211 371.297 31.7211C371.593 31.7211 371.847 31.6574 372.1 31.5512C372.354 31.445 372.565 31.2963 372.756 31.105C372.946 30.9138 373.094 30.7014 373.2 30.4465C373.305 30.1915 373.369 29.9153 373.369 29.639C373.369 29.3627 373.305 29.0867 373.2 28.8318H373.2ZM372.861 30.319C372.777 30.5314 372.65 30.7226 372.502 30.8714C372.354 31.0201 372.164 31.1475 371.952 31.2325C371.741 31.3175 371.53 31.3599 371.276 31.3599C371.043 31.3599 370.811 31.3175 370.599 31.2325C370.388 31.1476 370.198 31.0201 370.05 30.8713C369.902 30.7226 369.775 30.5314 369.69 30.319C369.606 30.1065 369.563 29.894 369.563 29.6391C369.563 29.4054 369.606 29.1717 369.69 28.9593C369.775 28.7468 369.902 28.5556 370.05 28.4069C370.198 28.2582 370.388 28.1307 370.599 28.0456C370.811 27.9607 371.022 27.9182 371.276 27.9182C371.508 27.9182 371.741 27.9608 371.952 28.0457C372.164 28.1307 372.354 28.2582 372.502 28.407C372.65 28.5556 372.777 28.7467 372.861 28.9593C372.946 29.1718 372.988 29.3842 372.988 29.6391C372.988 29.894 372.946 30.1065 372.861 30.319ZM371.677 29.8303C371.847 29.8091 371.973 29.7453 372.079 29.6391C372.185 29.5329 372.248 29.3842 372.248 29.1717C372.248 28.938 372.185 28.768 372.037 28.6406C371.91 28.5131 371.677 28.4493 371.403 28.4493H370.473V30.8501H370.916V29.8728H371.234L371.825 30.8501H372.29L371.677 29.8303ZM371.445 29.4691H370.916V28.7893H371.445C371.508 28.7893 371.572 28.8105 371.635 28.8318C371.699 28.8531 371.741 28.8955 371.762 28.938C371.804 28.9805 371.804 29.0442 371.804 29.1292C371.804 29.2141 371.783 29.278 371.762 29.3204C371.72 29.3629 371.677 29.4054 371.635 29.4267C371.572 29.4479 371.508 29.4691 371.445 29.4691H371.445Z" fill="#202430"/>
</g>
<g opacity="0.3" clip-path="url(#clip1_0_1910)">
<path d="M667.203 9.52369V23.9861H671.791V14.3445H688.571V23.9861H693.16V9.52369H667.203ZM671.267 4.83496H688.965C691.456 4.3727 693.225 2.12739 693.75 0.0141602H666.482C667.006 2.12739 668.842 4.30666 671.267 4.83496ZM653.241 23.9861C655.535 22.9955 656.781 21.2785 657.305 19.2974H636.657V0.0801986H632.004V23.9861H653.241ZM597.591 4.76893H613.978C616.469 4.0425 618.501 2.12739 619.025 0.0801986H593.068V14.2124H614.306V19.1653H597.656C595.035 19.8917 592.806 21.6748 591.692 23.9861H618.894V9.52369H597.656L597.591 4.76893ZM557.213 4.83496H574.911C577.402 4.3727 579.237 2.12739 579.696 0.0141602H552.363C552.887 2.12739 554.723 4.30666 557.213 4.83496ZM557.213 14.2785H574.911C577.402 13.8162 579.237 11.5709 579.696 9.45765H552.363C552.887 11.5709 554.723 13.7502 557.213 14.2785ZM557.213 23.9861H574.911C577.402 23.5238 579.237 21.2785 579.696 19.1653H552.363C552.887 21.2785 554.723 23.5238 557.213 23.9861Z" fill="#202430"/>
<path d="M511.133 0.0801986C511.657 2.19343 513.493 4.30666 515.918 4.83496H523.391L523.784 4.96704V23.9201H528.438V4.96704L528.831 4.83496H536.303C538.794 4.17458 540.564 2.19343 541.088 0.0801986V0.0141602L511.133 0.0801986Z" fill="#202430"/>
</g>
<g opacity="0.3" clip-path="url(#clip2_0_1910)">
<path d="M858.946 26.1392H852.49L850.514 21.335H839.754L837.955 26.1392H831.605L841.306 1.87487H848.256L858.946 26.1392ZM844.87 7.67292L841.342 17.1007H848.751L844.87 7.67292ZM882.399 1.87487H887.62V26.1392H881.622V10.983L875.131 18.5959H874.214L867.723 10.983V26.1389H861.725V1.87487H866.946L874.672 10.8759L882.399 1.87487ZM902.818 1.87487C911.602 1.87487 916.117 7.38866 916.117 14.0417C916.117 21.0147 911.743 26.1392 902.147 26.1392H892.198V1.87487H902.818ZM898.196 21.692H902.111C908.144 21.692 909.944 17.5641 909.944 14.0057C909.944 9.84275 907.721 6.32151 902.041 6.32151H898.196V21.692H898.196ZM928.05 7.62816L920.487 0H948.02V27.7664L940.457 20.1391V7.62816H928.05ZM928.041 9.1567L920.255 17.0086V28H931.153L938.939 20.1481H928.041V9.1567Z" fill="#202430"/>
</g>
<g opacity="0.3">
<path d="M1096.64 31.6074C1096.06 31.6074 1095.77 31.3594 1095.77 30.861V30.7045C1095.77 30.3914 1096.04 29.9195 1096.56 29.291C1097.11 28.6373 1097.39 27.9823 1097.39 27.3286V6.68086H1095.4C1094.82 6.68086 1094.3 6.93008 1093.82 7.42731C1093.37 7.91675 1093.01 8.47276 1092.73 9.07552C1092.48 9.65101 1092.17 10.188 1091.79 10.6852C1091.42 11.1824 1091.04 11.4316 1090.66 11.4316H1090.03C1089.33 11.4316 1089.01 11.0512 1089.09 10.2927L1089.84 4.95319C1089.91 4.14294 1090.34 3.7372 1091.12 3.7372H1110.42C1111.17 3.7372 1111.6 4.14294 1111.69 4.95319L1112.48 10.3312C1112.53 10.672 1112.47 10.9465 1112.3 11.1559C1112.12 11.3389 1111.87 11.4304 1111.54 11.4304H1110.91C1110.53 11.4304 1110.16 11.1824 1109.78 10.684C1109.4 10.1856 1109.08 9.65101 1108.8 9.07552C1108.53 8.47354 1108.15 7.92454 1107.68 7.42611C1107.2 6.93008 1106.68 6.68086 1106.1 6.68086H1104.15V27.3286C1104.15 27.9823 1104.41 28.6373 1104.94 29.291C1105.49 29.9195 1105.76 30.3902 1105.76 30.7045V30.861C1105.76 31.3594 1105.46 31.6074 1104.86 31.6074H1096.64ZM1128.43 27.3286C1128.51 27.9571 1128.64 28.4675 1128.84 28.86C1129.07 29.226 1129.28 29.462 1129.48 29.5667C1129.71 29.6715 1129.91 29.8015 1130.08 29.9592C1130.26 30.1157 1130.35 30.312 1130.35 30.548C1130.35 31.4112 1128.93 31.8434 1126.1 31.8434C1124.95 31.8434 1124.09 31.6989 1123.51 31.41C1122.96 31.1235 1122.61 30.6395 1122.46 29.9592C1121.51 31.3197 1119.92 31.9999 1117.69 31.9999C1115.59 31.9999 1113.87 31.4895 1112.54 30.4685C1111.24 29.4488 1110.59 27.9703 1110.59 26.0332C1110.59 24.149 1111.24 22.6838 1112.54 21.6363C1113.85 20.5648 1115.45 20.0278 1117.35 20.0278C1118.83 20.0278 1120.09 20.3541 1121.15 21.0091V20.8911C1120.89 18.3002 1120.61 16.5472 1120.28 15.6298C1119.98 14.7148 1119.38 14.2573 1118.48 14.2573C1117.9 14.2573 1117.44 14.5318 1117.09 15.0808C1116.74 15.6383 1116.47 16.2474 1116.3 16.8867C1116.15 17.5515 1115.84 18.1702 1115.4 18.6927C1114.95 19.2429 1114.35 19.5174 1113.6 19.5174C1112.82 19.5174 1112.18 19.2814 1111.68 18.8107C1111.21 18.3399 1110.97 17.7247 1110.97 16.9662C1110.97 15.448 1111.69 14.3091 1113.15 13.5506C1114.6 12.7656 1116.38 12.3731 1118.48 12.3731C1120.98 12.3731 1123.05 13.0919 1124.68 14.5318C1126.33 15.9453 1127.3 17.868 1127.6 20.3023L1128.43 27.3286ZM1119.76 29.9978C1120.33 29.9978 1120.79 29.71 1121.14 29.1345C1121.52 28.559 1121.71 27.9041 1121.71 27.1721L1121.56 25.3662C1121.31 23.1942 1120.53 22.1083 1119.23 22.1083C1118.65 22.1083 1118.19 22.3563 1117.84 22.8547C1117.49 23.3243 1117.31 23.966 1117.31 24.7774C1117.31 26.2426 1117.53 27.4863 1117.95 28.5061C1118.4 29.5005 1119.01 29.999 1119.76 29.999V29.9978ZM1131.99 31.6074C1131.41 31.6074 1131.13 31.3594 1131.13 30.861V30.7045C1131.13 30.3914 1131.36 29.9195 1131.84 29.291C1132.34 28.6373 1132.59 27.9823 1132.59 27.3286V9.38975C1132.59 8.70952 1132.34 8.05457 1131.84 7.42731C1131.36 6.77236 1131.13 6.31486 1131.13 6.0524V5.89589C1131.13 5.60694 1131.4 5.30595 1131.95 4.99292L1137.62 2.08779C1138.15 1.85302 1138.56 1.83978 1138.86 2.04927C1139.19 2.23227 1139.35 2.52001 1139.35 2.9125V27.3286C1139.35 27.9823 1139.63 28.6373 1140.18 29.291C1140.73 29.9195 1141 30.3902 1141 30.7045V30.861C1141 31.3594 1140.7 31.6074 1140.1 31.6074H1131.99ZM1162.59 28.3098C1162.71 28.4928 1163.09 28.8335 1163.71 29.3308C1164.36 29.828 1164.69 30.2855 1164.69 30.7045V30.861C1164.69 31.3594 1164.4 31.6074 1163.83 31.6074H1155.94C1155.36 31.6074 1155.08 31.3462 1155.08 30.8225V30.7045C1155.08 30.3914 1155.26 30.011 1155.64 29.5655C1156.02 29.096 1156.09 28.6758 1155.86 28.3098L1152.56 23.1677L1150.68 24.9737V27.3286C1150.68 27.9823 1150.96 28.6373 1151.51 29.291C1152.08 29.9195 1152.37 30.3902 1152.37 30.7045V30.861C1152.37 31.3594 1152.07 31.6074 1151.47 31.6074H1143.36C1142.76 31.6074 1142.46 31.3594 1142.46 30.861V30.7045C1142.46 30.3914 1142.71 29.9195 1143.21 29.291C1143.71 28.6373 1143.96 27.9823 1143.96 27.3286V9.38975C1143.96 8.70952 1143.66 8.05457 1143.06 7.42731C1142.46 6.77236 1142.16 6.31486 1142.16 6.0524V5.89589C1142.16 5.60694 1142.43 5.30595 1142.98 4.99292L1148.99 2.08779C1149.52 1.87831 1149.93 1.86627 1150.23 2.04927C1150.53 2.23227 1150.68 2.52001 1150.68 2.9125V21.5581L1155.75 17.0047C1156.05 16.7952 1156.17 16.534 1156.09 16.2198C1156.05 15.9148 1155.92 15.629 1155.72 15.3951C1155.52 15.1041 1155.32 14.8163 1155.12 14.5318C1154.91 14.2188 1154.81 13.9419 1154.81 13.7071V13.5506C1154.81 13.0269 1155.1 12.7656 1155.68 12.7656H1161.61C1162.19 12.7656 1162.48 13.0136 1162.48 13.5121V13.6686C1162.48 13.9816 1162.3 14.3091 1161.95 14.6498C1161.6 14.9628 1161.1 15.3433 1160.45 15.7875C1159.91 16.1345 1159.41 16.529 1158.95 16.9662L1156.54 19.2814L1162.59 28.3098ZM1170.16 10.4492C1168.88 10.4492 1167.84 10.0832 1167.04 9.35002C1166.24 8.59153 1165.84 7.64884 1165.84 6.52435C1165.84 5.39865 1166.24 4.46921 1167.04 3.7372C1167.84 2.97872 1168.88 2.59827 1170.16 2.59827C1171.41 2.59827 1172.44 2.97751 1173.24 3.7372C1174.04 4.46921 1174.44 5.39865 1174.44 6.52435C1174.44 7.64884 1174.04 8.59153 1173.24 9.35002C1172.44 10.0832 1171.41 10.4492 1170.16 10.4492ZM1166.14 31.6074C1165.54 31.6074 1165.24 31.3594 1165.24 30.861V30.7045C1165.24 30.3914 1165.49 29.9063 1165.99 29.2525C1166.49 28.5988 1166.74 27.9438 1166.74 27.2901V19.8316C1166.74 19.1514 1166.49 18.4964 1165.99 17.8692C1165.49 17.2142 1165.24 16.7688 1165.24 16.5328V16.3763C1165.24 16.0632 1165.53 15.7623 1166.1 15.4733L1171.77 12.5694C1172.3 12.3334 1172.71 12.3069 1173.01 12.4911C1173.31 12.6741 1173.46 12.9751 1173.46 13.3941V27.2901C1173.46 27.9438 1173.74 28.5976 1174.29 29.2525C1174.87 29.9063 1175.15 30.3902 1175.15 30.7045V30.861C1175.15 31.3582 1174.84 31.6074 1174.21 31.6074H1166.14ZM1184.56 31.9999C1182.66 31.9999 1181.16 31.3715 1180.06 30.1157C1178.98 28.86 1178.44 27.0673 1178.44 24.7377V15.4348H1177.02C1176.78 15.4403 1176.55 15.3559 1176.38 15.1988C1176.23 15.0108 1176.15 14.7742 1176.15 14.5318V13.6686C1176.15 13.0666 1176.44 12.7656 1177.02 12.7656H1177.73C1178.88 12.7656 1179.87 12.4117 1180.7 11.7061C1181.52 10.9717 1182.06 10.005 1182.31 8.80102C1182.44 8.12078 1182.77 7.78007 1183.32 7.78007H1184.19C1184.86 7.78007 1185.2 8.12078 1185.2 8.80102V12.7656H1189.07C1189.32 12.7656 1189.52 12.8571 1189.67 13.0401C1189.85 13.1966 1189.94 13.4061 1189.94 13.6686V14.5318C1189.94 14.655 1189.92 14.7775 1189.87 14.892C1189.83 15.0065 1189.76 15.1108 1189.67 15.1988C1189.59 15.2781 1189.5 15.3401 1189.4 15.3808C1189.29 15.4214 1189.18 15.4398 1189.07 15.4348H1185.2V24.8557C1185.2 25.5094 1185.36 26.0332 1185.69 26.4256C1186.02 26.7928 1186.42 26.9758 1186.89 26.9758C1187.97 26.9758 1188.79 26.4919 1189.37 25.5227C1189.55 25.2879 1189.75 25.1567 1189.97 25.1302C1190.2 25.0784 1190.39 25.1181 1190.53 25.2482C1190.71 25.3794 1190.8 25.5612 1190.8 25.7984C1190.8 27.4466 1190.24 28.8986 1189.11 30.1555C1188.01 31.3847 1186.49 31.9999 1184.56 31.9999Z" fill="#202430"/>
</g>
<defs>
<clipPath id="clip0_0_1910">
<rect width="82.0647" height="32" fill="white" transform="translate(291.304)"/>
</clipPath>
<clipPath id="clip1_0_1910">
<rect width="182.682" height="24" fill="white" transform="translate(511.133)"/>
</clipPath>
<clipPath id="clip2_0_1910">
<rect width="116.465" height="28" fill="white" transform="translate(831.58)"/>
</clipPath>
</defs>
</svg>
